<mxfile host="app.diagrams.net" modified="2024-05-08T22:53:49.908Z" agent="Mozilla/5.0 (Windows NT 10.0; Win64; x64; rv:125.0) Gecko/20100101 Firefox/125.0" etag="nuG99l4HZvHaGTO50k2y" version="24.2.2" type="device">
  <diagram name="Seite-1" id="5qyd4jxujYh1DK8Yhu79">
    <mxGraphModel dx="683" dy="359" grid="1" gridSize="10" guides="1" tooltips="1" connect="1" arrows="1" fold="1" page="1" pageScale="1" pageWidth="827" pageHeight="1169" math="0" shadow="0">
      <root>
        <mxCell id="0" />
        <mxCell id="1" parent="0" />
        <mxCell id="U5PHLzI9iHUEopRVpCek-6" value="" style="rounded=1;whiteSpace=wrap;html=1;strokeWidth=11;fillColor=#8A8A8A;" vertex="1" parent="1">
          <mxGeometry x="340" y="170" width="240" height="240" as="geometry" />
        </mxCell>
        <mxCell id="U5PHLzI9iHUEopRVpCek-13" value="" style="endArrow=none;html=1;rounded=0;strokeWidth=6;" edge="1" parent="1">
          <mxGeometry width="50" height="50" relative="1" as="geometry">
            <mxPoint x="350" y="240" as="sourcePoint" />
            <mxPoint x="570" y="240" as="targetPoint" />
          </mxGeometry>
        </mxCell>
        <mxCell id="U5PHLzI9iHUEopRVpCek-10" value="" style="endArrow=none;html=1;rounded=0;strokeWidth=6;" edge="1" parent="1">
          <mxGeometry width="50" height="50" relative="1" as="geometry">
            <mxPoint x="350" y="380" as="sourcePoint" />
            <mxPoint x="570" y="380" as="targetPoint" />
          </mxGeometry>
        </mxCell>
        <mxCell id="U5PHLzI9iHUEopRVpCek-11" value="" style="endArrow=none;html=1;rounded=0;strokeWidth=6;" edge="1" parent="1">
          <mxGeometry width="50" height="50" relative="1" as="geometry">
            <mxPoint x="350" y="309.76" as="sourcePoint" />
            <mxPoint x="570" y="309.76" as="targetPoint" />
          </mxGeometry>
        </mxCell>
        <mxCell id="U5PHLzI9iHUEopRVpCek-2" value="" style="endArrow=none;html=1;rounded=0;fillColor=#dae8fc;strokeColor=#1128BF;strokeWidth=14;" edge="1" parent="1">
          <mxGeometry width="50" height="50" relative="1" as="geometry">
            <mxPoint x="360" y="309.76" as="sourcePoint" />
            <mxPoint x="560" y="309.76" as="targetPoint" />
            <Array as="points">
              <mxPoint x="390" y="309.76" />
              <mxPoint x="390" y="269.76" />
              <mxPoint x="440" y="269.76" />
              <mxPoint x="440" y="309.76" />
              <mxPoint x="470" y="310" />
              <mxPoint x="470" y="270" />
              <mxPoint x="500" y="269.76" />
              <mxPoint x="500" y="309.76" />
            </Array>
          </mxGeometry>
        </mxCell>
        <mxCell id="U5PHLzI9iHUEopRVpCek-7" value="" style="endArrow=none;html=1;rounded=0;fillColor=#dae8fc;strokeColor=#1128BF;strokeWidth=14;" edge="1" parent="1">
          <mxGeometry width="50" height="50" relative="1" as="geometry">
            <mxPoint x="360" y="380" as="sourcePoint" />
            <mxPoint x="560" y="340" as="targetPoint" />
            <Array as="points">
              <mxPoint x="390" y="380" />
              <mxPoint x="390" y="340" />
              <mxPoint x="420" y="340" />
              <mxPoint x="420" y="380" />
              <mxPoint x="500" y="380" />
              <mxPoint x="500" y="340" />
            </Array>
          </mxGeometry>
        </mxCell>
        <mxCell id="U5PHLzI9iHUEopRVpCek-14" value="" style="endArrow=none;html=1;rounded=0;strokeWidth=6;" edge="1" parent="1">
          <mxGeometry width="50" height="50" relative="1" as="geometry">
            <mxPoint x="360" y="190" as="sourcePoint" />
            <mxPoint x="360" y="390" as="targetPoint" />
          </mxGeometry>
        </mxCell>
        <mxCell id="U5PHLzI9iHUEopRVpCek-15" value="" style="endArrow=none;html=1;rounded=0;fillColor=#dae8fc;strokeColor=#1128BF;strokeWidth=14;" edge="1" parent="1">
          <mxGeometry width="50" height="50" relative="1" as="geometry">
            <mxPoint x="360" y="240" as="sourcePoint" />
            <mxPoint x="560" y="240" as="targetPoint" />
            <Array as="points">
              <mxPoint x="400" y="240" />
              <mxPoint x="400" y="200" />
              <mxPoint x="440" y="200" />
              <mxPoint x="440" y="240" />
              <mxPoint x="480" y="240" />
              <mxPoint x="480" y="200" />
              <mxPoint x="520" y="200" />
              <mxPoint x="520" y="240" />
              <mxPoint x="560" y="240" />
            </Array>
          </mxGeometry>
        </mxCell>
      </root>
    </mxGraphModel>
  </diagram>
</mxfile>
